<mxfile host="Electron" modified="2023-09-14T20:03:52.200Z" agent="Mozilla/5.0 (Windows NT 10.0; Win64; x64) AppleWebKit/537.36 (KHTML, like Gecko) draw.io/21.7.5 Chrome/114.0.5735.289 Electron/25.8.1 Safari/537.36" etag="4PAoLxGwOGF4G2q8O9pa" version="21.7.5" type="device">
  <diagram name="Page-1" id="NMwvUnb_0dDdzAKr1Es_">
    <mxGraphModel dx="629" dy="462" grid="1" gridSize="10" guides="1" tooltips="1" connect="1" arrows="1" fold="1" page="1" pageScale="1" pageWidth="850" pageHeight="1100" math="0" shadow="0">
      <root>
        <mxCell id="0" />
        <mxCell id="1" parent="0" />
        <mxCell id="ArMc2ezhQEl22UxAVHVD-2" value="IDLE&lt;br&gt;PELx = 0" style="ellipse;whiteSpace=wrap;html=1;" vertex="1" parent="1">
          <mxGeometry x="305" y="180" width="120" height="80" as="geometry" />
        </mxCell>
        <mxCell id="ArMc2ezhQEl22UxAVHVD-3" value="SETUP&lt;br&gt;PSELx = 1&lt;br&gt;PENABLE = 0" style="ellipse;whiteSpace=wrap;html=1;" vertex="1" parent="1">
          <mxGeometry x="305" y="300" width="120" height="80" as="geometry" />
        </mxCell>
        <mxCell id="ArMc2ezhQEl22UxAVHVD-4" value="" style="endArrow=classic;html=1;rounded=0;" edge="1" parent="1">
          <mxGeometry width="50" height="50" relative="1" as="geometry">
            <mxPoint x="364.8" y="260" as="sourcePoint" />
            <mxPoint x="364.8" y="300" as="targetPoint" />
          </mxGeometry>
        </mxCell>
        <mxCell id="ArMc2ezhQEl22UxAVHVD-5" value="Transfer" style="edgeLabel;html=1;align=center;verticalAlign=middle;resizable=0;points=[];" vertex="1" connectable="0" parent="ArMc2ezhQEl22UxAVHVD-4">
          <mxGeometry x="-0.2067" y="-1" relative="1" as="geometry">
            <mxPoint as="offset" />
          </mxGeometry>
        </mxCell>
        <mxCell id="ArMc2ezhQEl22UxAVHVD-6" value="" style="endArrow=classic;html=1;rounded=0;" edge="1" parent="1">
          <mxGeometry width="50" height="50" relative="1" as="geometry">
            <mxPoint x="364.8" y="380" as="sourcePoint" />
            <mxPoint x="364.8" y="420" as="targetPoint" />
          </mxGeometry>
        </mxCell>
        <mxCell id="ArMc2ezhQEl22UxAVHVD-26" value="PREADY = 1&lt;br&gt;and transfer" style="edgeStyle=orthogonalEdgeStyle;curved=1;rounded=0;orthogonalLoop=1;jettySize=auto;html=1;exitX=0.5;exitY=1;exitDx=0;exitDy=0;entryX=1;entryY=0.5;entryDx=0;entryDy=0;" edge="1" parent="1" source="ArMc2ezhQEl22UxAVHVD-8" target="ArMc2ezhQEl22UxAVHVD-3">
          <mxGeometry x="0.2373" relative="1" as="geometry">
            <Array as="points">
              <mxPoint x="365" y="570" />
              <mxPoint x="540" y="570" />
              <mxPoint x="540" y="340" />
            </Array>
            <mxPoint as="offset" />
          </mxGeometry>
        </mxCell>
        <mxCell id="ArMc2ezhQEl22UxAVHVD-28" value="PREADY = 1&lt;br&gt;and no transfer" style="edgeStyle=orthogonalEdgeStyle;curved=1;rounded=0;orthogonalLoop=1;jettySize=auto;html=1;exitX=0;exitY=0.5;exitDx=0;exitDy=0;entryX=-0.006;entryY=0.401;entryDx=0;entryDy=0;entryPerimeter=0;" edge="1" parent="1" source="ArMc2ezhQEl22UxAVHVD-8" target="ArMc2ezhQEl22UxAVHVD-2">
          <mxGeometry relative="1" as="geometry">
            <Array as="points">
              <mxPoint x="240" y="460" />
              <mxPoint x="240" y="212" />
            </Array>
          </mxGeometry>
        </mxCell>
        <mxCell id="ArMc2ezhQEl22UxAVHVD-8" value="ACCESS&lt;br&gt;PSELx = 1&lt;br&gt;PENABLE = 1" style="ellipse;whiteSpace=wrap;html=1;" vertex="1" parent="1">
          <mxGeometry x="305" y="420" width="120" height="80" as="geometry" />
        </mxCell>
        <mxCell id="ArMc2ezhQEl22UxAVHVD-9" value="No transfer" style="curved=1;endArrow=classic;html=1;rounded=0;entryX=1;entryY=0;entryDx=0;entryDy=0;" edge="1" parent="1" target="ArMc2ezhQEl22UxAVHVD-2">
          <mxGeometry width="50" height="50" relative="1" as="geometry">
            <mxPoint x="410" y="245" as="sourcePoint" />
            <mxPoint x="460" y="195" as="targetPoint" />
            <Array as="points">
              <mxPoint x="460" y="245" />
              <mxPoint x="480" y="220" />
              <mxPoint x="470" y="190" />
              <mxPoint x="450" y="180" />
              <mxPoint x="420" y="180" />
            </Array>
          </mxGeometry>
        </mxCell>
        <mxCell id="ArMc2ezhQEl22UxAVHVD-27" value="PREADY = 0" style="edgeStyle=orthogonalEdgeStyle;curved=1;rounded=0;orthogonalLoop=1;jettySize=auto;html=1;exitX=0.5;exitY=1;exitDx=0;exitDy=0;entryX=1;entryY=0.5;entryDx=0;entryDy=0;" edge="1" parent="1" source="ArMc2ezhQEl22UxAVHVD-8" target="ArMc2ezhQEl22UxAVHVD-8">
          <mxGeometry x="0.2222" y="5" relative="1" as="geometry">
            <mxPoint as="offset" />
          </mxGeometry>
        </mxCell>
      </root>
    </mxGraphModel>
  </diagram>
</mxfile>
